<svg xmlns="http://www.w3.org/2000/svg" version="1.1" xmlns:xlink="http://www.w3.org/1999/xlink" xmlns:svgjs="http://svgjs.com/svgjs" width="889" height="889"><svg width="889" height="889" viewBox="0 0 889 889" fill="none" xmlns="http://www.w3.org/2000/svg">
<circle cx="444.5" cy="444.5" r="444.5" fill="#272127"></circle>
<path d="M559.424 421.08L440.721 409.513C357.328 372.499 504.793 380.68 588.95 389.397C610.843 432.815 649.567 523.473 629.321 538.762C609.075 554.051 593.971 555.526 588.95 554.352C546.168 543.623 476.754 523.272 541.348 527.698C605.942 532.124 580.313 458.464 559.424 421.08Z" fill="#6300F8"></path>
<path d="M312.668 402.707C336.335 342.374 407.068 243.007 500.668 328.207L514.668 277.207C524.096 259.431 429.718 223.352 375.168 251.207C348.835 263.541 289.168 314.007 261.168 417.207C233.168 520.407 283.835 525.207 312.668 514.707C342.501 498.947 409.268 481.783 437.668 539.207C466.068 596.632 407.835 600.468 375.168 595.207C318.335 579.874 226.268 563.607 312.668 621.207C399.068 678.807 450.335 627.874 465.168 595.207C504.668 524.207 551.068 397.607 420.668 459.207C290.268 520.807 294.335 447.207 312.668 402.707Z" fill="#6300F8"></path>
</svg><style>@media (prefers-color-scheme: light) { :root { filter: none; } }
</style></svg>